<?xml version="1.0" encoding="UTF-8"?>
<svg width="48px" height="43px" viewBox="0 0 48 43" version="1.1" xmlns="http://www.w3.org/2000/svg" xmlns:xlink="http://www.w3.org/1999/xlink">
    <!-- Generator: Sketch 56.2 (81672) - https://sketch.com -->
    <title>icon3</title>
    <desc>Created with Sketch.</desc>
    <defs>
        <linearGradient x1="-68.4156302%" y1="11.3260907%" x2="229.416684%" y2="123.150742%" id="linearGradient-1">
            <stop stop-color="#F7FAFF" offset="0%"></stop>
            <stop stop-color="#7EB3FF" offset="100%"></stop>
        </linearGradient>
        <linearGradient x1="111.668551%" y1="50%" x2="30.4943731%" y2="52.1702378%" id="linearGradient-2">
            <stop stop-color="#96C0FB" offset="0%"></stop>
            <stop stop-color="#1472F7" offset="100%"></stop>
        </linearGradient>
    </defs>
    <g id="页面1" stroke="none" stroke-width="1" fill="none" fill-rule="evenodd">
        <g id="中文" transform="translate(-126.000000, -732.000000)" fill-rule="nonzero">
            <g id="编组-16备份-22" transform="translate(0.000000, 664.000000)">
                <g id="icon3" transform="translate(125.000000, 68.000000)">
                    <path d="M9.4,41.28 C10.6253902,42.3146909 12.371958,42.5159549 13.81,41.7881818 C17.2588582,40.0100967 21.1006512,39.0840588 25,39.0909091 C29.04,39.0909091 32.85,40.0681818 36.19,41.7881818 C37.62,42.5309091 39.38,42.2963636 40.61,41.2702273 C46.4038271,36.4333716 49.4967035,29.1907819 48.94,21.7638636 C48.0330251,10.0910884 38.4911638,0.84102066 26.54,0.0488636364 C16.2267268,-0.600531999 6.64617435,5.27503014 2.75912443,14.6332013 C-1.12792549,23.9913725 1.55149908,34.7304506 9.41,41.2897727 L9.4,41.28 Z M11.88,36.7845455 L11.47,36.3838636 C7.49767442,32.4128914 5.52469765,26.928971 6.08,21.4022727 C6.2,20.6009091 6.26,19.7409091 6.48,18.9590909 L6.78,17.7570455 L7.21,16.5843182 C7.33,16.1738636 7.51,15.7829545 7.69,15.4115909 C7.88,15.0206818 8.05,14.6297727 8.25,14.2584091 C8.69,13.5254545 9.09,12.7631818 9.63,12.0888636 C11.620923,9.31866223 14.3302901,7.11610524 17.48,5.70727273 C18.24,5.36522727 19.01,5.09159091 19.76,4.8375 C20.53,4.65181818 21.27,4.37818182 22.03,4.28045455 C22.78,4.16318182 23.51,4.01659091 24.23,3.98727273 C24.93,3.94818182 25.66,3.88954545 26.29,3.91886364 C29.2876399,3.98279933 32.2327607,4.7006764 34.91,6.02 C35.460189,6.28185943 35.8256354,6.81067891 35.8686791,7.40725726 C35.9117228,8.0038356 35.6258245,8.57753837 35.1186791,8.91225727 C34.6115338,9.24697617 33.960189,9.29185945 33.41,9.03 L33.37,9.00068182 L33.31,8.97136364 L32.84,8.72704545 C31.6854797,8.16113467 30.4717688,7.71879463 29.22,7.40772727 C28.2288691,7.172906 27.2181267,7.02572158 26.2,6.96795455 C25.6,6.91909091 25.04,6.94840909 24.42,6.96795455 C23.82,6.96795455 23.19,7.06568182 22.55,7.14386364 C21.9,7.2025 21.26,7.4175 20.59,7.54454545 C18.5065352,8.12951203 16.5507472,9.08352487 14.82,10.3590909 C13.65,11.2777273 12.52,12.3038636 11.62,13.5156818 C11.11,14.0825 10.75,14.7470455 10.32,15.3725 C10.13,15.695 9.97,16.0370455 9.8,16.3693182 C9.62,16.6918182 9.45,17.0338636 9.33,17.3759091 L8.92,18.4118182 L8.62,19.4672727 C8.38,20.1709091 8.32,20.855 8.18,21.5390909 C7.80629448,24.1401988 8.05969786,26.7906613 8.92,29.2790909 C9.69375083,31.5300367 10.9365645,33.5997935 12.57,35.3577273 L12.97,35.7877273 C13.243943,36.0832799 13.2258384,36.5386354 12.9292549,36.8125238 C12.6326714,37.0864121 12.1664481,37.0783227 11.88,36.7943182 L11.88,36.7845455 Z" id="Shape" fill="url(#linearGradient-1)"></path>
                    <path d="M39.85,37.9670455 C39.4599625,38.3459571 38.8300375,38.3459571 38.44,37.9670455 L36.31,35.8952273 C35.9178778,35.512017 35.9178778,34.8907103 36.31,34.5075 C36.7021222,34.1242897 37.3378778,34.1242897 37.73,34.5075 L39.85,36.5890909 C40.2311429,36.9690971 40.2311429,37.5772666 39.85,37.9572727 L39.85,37.9670455 Z M43.19,33.7159091 C43.0580488,33.9420888 42.839201,34.1074628 42.5820037,34.1753462 C42.3248063,34.2432295 42.0505237,34.2080099 41.82,34.0775 L39.22,32.6115909 C38.7395123,32.3417245 38.5738577,31.7422948 38.85,31.2727273 C39.1261424,30.8031597 39.7395123,30.64127 40.22,30.9111364 L42.82,32.3770455 C43.0514397,32.5059978 43.2206596,32.7198717 43.2901217,32.9712237 C43.3595837,33.2225757 43.323545,33.4906245 43.19,33.7159091 Z M45.29,28.7709091 C45.2198876,29.0211317 45.0508445,29.2338411 44.8201234,29.3621616 C44.5894024,29.4904821 44.3159398,29.5238817 44.06,29.455 L41.16,28.7025 C40.8134524,28.6117221 40.5427849,28.3471607 40.4499554,28.0084735 C40.3571258,27.6697864 40.4562373,27.3084282 40.7099554,27.060519 C40.9636734,26.8126098 41.3334524,26.715813 41.68,26.8065909 L44.58,27.5688636 C44.8360417,27.6373826 45.0536979,27.8025838 45.1850026,28.0280612 C45.3163072,28.2535386 45.3504836,28.5207861 45.28,28.7709091 L45.29,28.7709091 Z M46,23.4545455 C46,23.9942783 45.5522847,24.4318182 45,24.4318182 L42,24.4318182 C41.4477153,24.4318182 41,23.9942783 41,23.4545455 C41,22.9148126 41.4477153,22.4772727 42,22.4772727 L45,22.4772727 C45.5522847,22.4772727 46,22.9148126 46,23.4545455 Z M45.28,18.1381818 C45.3504836,18.3883048 45.3163072,18.6555523 45.1850026,18.8810297 C45.0536979,19.1065071 44.8360417,19.2717083 44.58,19.3402273 L41.68,20.1025 C41.3334524,20.1932779 40.9636734,20.0964811 40.7099554,19.8485719 C40.4562373,19.6006627 40.3571258,19.2393045 40.4499554,18.9006174 C40.5427849,18.5619302 40.8134524,18.2973688 41.16,18.2065909 L44.06,17.4540909 C44.5897792,17.3168665 45.1338709,17.6219552 45.28,18.1381818 L45.28,18.1381818 Z M43.18,13.1931818 C43.3143739,13.4172789 43.3519353,13.6844342 43.2843886,13.9356451 C43.2168418,14.186856 43.0497442,14.4014545 42.82,14.5320455 L40.22,15.9979545 C39.7395123,16.267821 39.1261424,16.1059312 38.85,15.6363636 C38.5738576,15.1667961 38.7395123,14.5673664 39.22,14.2975 L41.82,12.8315909 C42.0505237,12.701081 42.3248063,12.6658614 42.5820037,12.7337447 C42.839201,12.8016281 43.0580488,12.9670021 43.19,13.1931818 L43.18,13.1931818 Z M39.8364197,8.69826302 C39.6210725,8.58487839 39.3717612,8.59527688 39.1655084,8.70705586 L38.9780011,8.84444695 L24.7400634,19.6863519 C24.3463033,19.935522 24.0087799,20.2615284 23.7781421,20.6910405 C23.046775,22.053252 23.593816,23.7580406 24.9998758,24.4984339 C26.2159489,25.1387337 27.6900579,24.8445035 28.5303426,23.8544745 L28.5627771,23.8243283 L40.1403337,9.64537618 C40.3248225,9.30175516 40.1911014,8.88502907 39.8364197,8.69826302 L39.8364197,8.69826302 Z" id="Shape" fill="url(#linearGradient-2)"></path>
                </g>
            </g>
        </g>
    </g>
</svg>