<svg width="54" height="42" xmlns="http://www.w3.org/2000/svg"><defs><linearGradient x1="0%" y1="108.677%" x2="92.224%" y2="108.677%" id="a"><stop stop-color="#3475F1" offset="0%"/><stop stop-color="#02E0FF" offset="42.039%"/><stop stop-color="#B8F4FF" offset="51.766%"/><stop stop-color="#FF7C7F" offset="75.97%"/><stop stop-color="#FA4D4F" offset="100%"/></linearGradient></defs><path d="M50.364 39.974A26.228 26.228 0 0054 26.624c0-7.313-3.009-14.161-8.235-19.143C40.765 2.714 34.095 0 27 0 19.216 0 11.96 3.27 6.87 8.88 2.476 13.724 0 19.987 0 26.622c0 4.997 1.401 9.798 4.006 13.962.877 1.4 2.738 1.835 4.158.97a2.955 2.955 0 00.985-4.1 20.339 20.339 0 01-3.106-10.832c0-5.155 1.917-10.008 5.332-13.771C15.328 8.494 20.953 5.959 27 5.959c5.512 0 10.68 2.103 14.564 5.806 4.061 3.87 6.393 9.178 6.393 14.858 0 3.694-.981 7.239-2.819 10.36a2.957 2.957 0 001.096 4.072c1.443.826 3.292.342 4.13-1.08z" fill="url(#a)" fill-rule="nonzero"/></svg>