<svg width="33" height="26" xmlns="http://www.w3.org/2000/svg" xmlns:xlink="http://www.w3.org/1999/xlink"><defs><filter x="-11.1%" y="-15.1%" width="122.2%" height="130.3%" filterUnits="objectBoundingBox" id="a"><feOffset in="SourceAlpha" result="shadowOffsetOuter1"/><feGaussianBlur stdDeviation="1" in="shadowOffsetOuter1" result="shadowBlurOuter1"/><feColorMatrix values="0 0 0 0 0.606629303 0 0 0 0 0.606629303 0 0 0 0 0.606629303 0 0 0 0.5 0" in="shadowBlurOuter1"/></filter><path d="M.694 21.276L20.978 5.075c.189-.189.397-.355.621-.497l.037-.029.003.005a3.55 3.55 0 012.668-.441c1.93.445 3.128 2.393 2.676 4.35a3.653 3.653 0 01-1.274 2.034l.004.005-.031.017c-.307.241-.65.432-1.018.563L2.154 23.548a1.335 1.335 0 01-1.115.244 1.354 1.354 0 01-1.003-1.63c.09-.391.337-.704.658-.886z" id="b"/></defs><g transform="translate(1.823)" fill="none" fill-rule="evenodd"><circle fill="#E6ECF2" cx="23.677" cy="7.5" r="7.5"/><use fill="#000" filter="url(#a)" xlink:href="#b"/><use fill="#FFF" xlink:href="#b"/></g></svg>